<svg width="1727" height="1102" viewBox="0 0 1727 1102" fill="none" xmlns="http://www.w3.org/2000/svg">
<path d="M593 262V843" stroke="white"/>
<line x1="863.5" y1="-2.18557e-08" x2="863.5" y2="1102" stroke="url(#paint0_linear_5_62)"/>
<line x1="727.5" y1="261" x2="727.5" y2="843" stroke="white"/>
<line x1="996.5" y1="263" x2="996.5" y2="845" stroke="white"/>
<line x1="1130.5" y1="261" x2="1130.5" y2="843" stroke="white"/>
<line x1="459.5" y1="261" x2="459.5" y2="845" stroke="white"/>
<line x1="316.5" y1="210" x2="316.5" y2="896" stroke="white"/>
<line x1="136.5" y1="144" x2="136.5" y2="961" stroke="white"/>
<line x1="1603.5" y1="145" x2="1603.5" y2="962" stroke="white"/>
<line x1="1264.5" y1="260" x2="1264.5" y2="843" stroke="white"/>
<line x1="1414.5" y1="209" x2="1414.5" y2="896" stroke="white"/>
<path d="M1265 357L461 357" stroke="white"/>
<path d="M1605 144L136 144" stroke="white"/>
<path d="M1605 961L136 961" stroke="white"/>
<line x1="1603" y1="551.5" x2="136" y2="551.5" stroke="white"/>
<line x1="1266" y1="454.5" x2="461" y2="454.5" stroke="white"/>
<line x1="1264" y1="649.5" x2="459" y2="649.5" stroke="white"/>
<line x1="1266" y1="746.5" x2="461" y2="746.5" stroke="white"/>
<line x1="1266" y1="260.5" x2="459" y2="260.5" stroke="white"/>
<line x1="1267" y1="843.5" x2="461" y2="843.5" stroke="white"/>
<line x1="1416" y1="895.5" x2="316" y2="895.5" stroke="white"/>
<line x1="1416" y1="209.5" x2="316" y2="209.5" stroke="white"/>
<line x1="1264.84" y1="261.528" x2="1726.84" y2="100.528" stroke="url(#paint1_linear_5_62)"/>
<line x1="459.827" y1="262.469" x2="0.827233" y2="93.4692" stroke="url(#paint2_linear_5_62)"/>
<line x1="1266.16" y1="842.528" x2="1727.16" y2="1003.53" stroke="url(#paint3_linear_5_62)"/>
<line x1="459.171" y1="843.47" x2="4.17137" y2="1009.47" stroke="url(#paint4_linear_5_62)"/>
<line y1="-0.5" x2="449.839" y2="-0.5" transform="matrix(-0.99891 -0.0466833 -0.081836 0.996646 457.349 456)" stroke="url(#paint5_linear_5_62)"/>
<line y1="-0.5" x2="449.839" y2="-0.5" transform="matrix(0.99891 -0.0466833 0.081836 0.996646 1265.65 456)" stroke="url(#paint6_linear_5_62)"/>
<line y1="-0.5" x2="452.464" y2="-0.5" transform="matrix(-0.993116 -0.117136 -0.202922 0.979195 458.674 358)" stroke="url(#paint7_linear_5_62)"/>
<line y1="-0.5" x2="452.464" y2="-0.5" transform="matrix(0.993116 -0.117136 0.202922 0.979195 1264.33 358)" stroke="url(#paint8_linear_5_62)"/>
<line y1="-0.5" x2="451.483" y2="-0.5" transform="matrix(-0.99821 0.059803 0.104683 0.994506 460 651)" stroke="url(#paint9_linear_5_62)"/>
<line y1="-0.5" x2="451.483" y2="-0.5" transform="matrix(0.99821 0.059803 -0.104683 0.994506 1263 651)" stroke="url(#paint10_linear_5_62)"/>
<line y1="-0.5" x2="456.369" y2="-0.5" transform="matrix(-0.990426 0.138046 0.237861 0.971299 460 748)" stroke="url(#paint11_linear_5_62)"/>
<line y1="-0.5" x2="456.369" y2="-0.5" transform="matrix(0.990426 0.138046 -0.237861 0.971299 1263 748)" stroke="url(#paint12_linear_5_62)"/>
<line x1="728.464" y1="843.187" x2="628.464" y2="1091.19" stroke="url(#paint13_linear_5_62)"/>
<line y1="-0.5" x2="267.402" y2="-0.5" transform="matrix(-0.373968 -0.927441 -0.927441 0.373968 727 261)" stroke="url(#paint14_linear_5_62)"/>
<line x1="997.468" y1="842.824" x2="1090.47" y2="1090.82" stroke="url(#paint15_linear_5_62)"/>
<line y1="-0.5" x2="264.864" y2="-0.5" transform="matrix(0.351123 -0.936329 -0.936329 -0.351123 996 261)" stroke="url(#paint16_linear_5_62)"/>
<line x1="593.321" y1="843.383" x2="308.321" y2="1082.38" stroke="url(#paint17_linear_5_62)"/>
<line y1="-0.5" x2="371.949" y2="-0.5" transform="matrix(-0.766234 -0.642561 -0.642561 0.766234 592 261)" stroke="url(#paint18_linear_5_62)"/>
<line x1="1132.32" y1="842.613" x2="1424.32" y2="1081.61" stroke="url(#paint19_linear_5_62)"/>
<line y1="-0.5" x2="377.339" y2="-0.5" transform="matrix(0.773839 -0.633382 -0.633382 -0.773839 1131 261)" stroke="url(#paint20_linear_5_62)"/>
<line x1="1604" y1="552.5" x2="1706" y2="552.5" stroke="url(#paint21_linear_5_62)"/>
<line x1="137" y1="551.5" x2="18" y2="551.5" stroke="url(#paint22_linear_5_62)"/>
<defs>
<linearGradient id="paint0_linear_5_62" x1="863" y1="1100.5" x2="863.87" y2="0.000687732" gradientUnits="userSpaceOnUse">
<stop stop-color="white" stop-opacity="0"/>
<stop offset="0.126197" stop-color="white"/>
<stop offset="0.865484" stop-color="white" stop-opacity="0.880734"/>
<stop offset="0.979167" stop-color="white" stop-opacity="0"/>
</linearGradient>
<linearGradient id="paint1_linear_5_62" x1="1316.2" y1="249.383" x2="1727.42" y2="120.515" gradientUnits="userSpaceOnUse">
<stop offset="0.694118" stop-color="white"/>
<stop offset="0.982772" stop-color="white" stop-opacity="0"/>
</linearGradient>
<linearGradient id="paint2_linear_5_62" x1="137.5" y1="144" x2="6.66661" y2="103.547" gradientUnits="userSpaceOnUse">
<stop stop-color="white"/>
<stop offset="1" stop-color="white" stop-opacity="0"/>
</linearGradient>
<linearGradient id="paint3_linear_5_62" x1="1595" y1="956.001" x2="1708.9" y2="997.153" gradientUnits="userSpaceOnUse">
<stop stop-color="white"/>
<stop offset="1" stop-color="white" stop-opacity="0"/>
</linearGradient>
<linearGradient id="paint4_linear_5_62" x1="143" y1="958.001" x2="24.4309" y2="998.327" gradientUnits="userSpaceOnUse">
<stop stop-color="white"/>
<stop offset="1" stop-color="white" stop-opacity="0"/>
</linearGradient>
<linearGradient id="paint5_linear_5_62" x1="321.282" y1="-1.00559" x2="438.255" y2="7.72449" gradientUnits="userSpaceOnUse">
<stop stop-color="white"/>
<stop offset="1" stop-color="white" stop-opacity="0"/>
</linearGradient>
<linearGradient id="paint6_linear_5_62" x1="321.282" y1="-1.00559" x2="438.255" y2="7.72449" gradientUnits="userSpaceOnUse">
<stop stop-color="white"/>
<stop offset="1" stop-color="white" stop-opacity="0"/>
</linearGradient>
<linearGradient id="paint7_linear_5_62" x1="326.577" y1="-0.762305" x2="435.867" y2="17.3923" gradientUnits="userSpaceOnUse">
<stop stop-color="white"/>
<stop offset="1" stop-color="white" stop-opacity="0"/>
</linearGradient>
<linearGradient id="paint8_linear_5_62" x1="326.577" y1="-0.762305" x2="435.867" y2="17.3923" gradientUnits="userSpaceOnUse">
<stop stop-color="white"/>
<stop offset="1" stop-color="white" stop-opacity="0"/>
</linearGradient>
<linearGradient id="paint9_linear_5_62" x1="323.935" y1="-1.37891" x2="444.717" y2="-12.0345" gradientUnits="userSpaceOnUse">
<stop stop-color="white"/>
<stop offset="1" stop-color="white" stop-opacity="0"/>
</linearGradient>
<linearGradient id="paint10_linear_5_62" x1="323.935" y1="-1.37891" x2="444.717" y2="-12.0345" gradientUnits="userSpaceOnUse">
<stop stop-color="white"/>
<stop offset="1" stop-color="white" stop-opacity="0"/>
</linearGradient>
<linearGradient id="paint11_linear_5_62" x1="325.759" y1="-1.51224" x2="439.089" y2="-24.8128" gradientUnits="userSpaceOnUse">
<stop stop-color="white"/>
<stop offset="1" stop-color="white" stop-opacity="0"/>
</linearGradient>
<linearGradient id="paint12_linear_5_62" x1="325.759" y1="-1.51224" x2="439.089" y2="-24.8128" gradientUnits="userSpaceOnUse">
<stop stop-color="white"/>
<stop offset="1" stop-color="white" stop-opacity="0"/>
</linearGradient>
<linearGradient id="paint13_linear_5_62" x1="681" y1="960.5" x2="631" y2="1086" gradientUnits="userSpaceOnUse">
<stop stop-color="white"/>
<stop offset="1" stop-color="white" stop-opacity="0"/>
</linearGradient>
<linearGradient id="paint14_linear_5_62" x1="126.551" y1="-0.351553" x2="261.643" y2="-0.912608" gradientUnits="userSpaceOnUse">
<stop stop-color="white"/>
<stop offset="1" stop-color="white" stop-opacity="0"/>
</linearGradient>
<linearGradient id="paint15_linear_5_62" x1="1041.5" y1="960.5" x2="1090" y2="1083.5" gradientUnits="userSpaceOnUse">
<stop stop-color="white"/>
<stop offset="1" stop-color="white" stop-opacity="0"/>
</linearGradient>
<linearGradient id="paint16_linear_5_62" x1="125.644" y1="-0.410032" x2="257.842" y2="-2.63381" gradientUnits="userSpaceOnUse">
<stop stop-color="white"/>
<stop offset="1" stop-color="white" stop-opacity="0"/>
</linearGradient>
<linearGradient id="paint17_linear_5_62" x1="457.501" y1="957.001" x2="310.001" y2="1080" gradientUnits="userSpaceOnUse">
<stop stop-color="white"/>
<stop offset="1" stop-color="white" stop-opacity="0"/>
</linearGradient>
<linearGradient id="paint18_linear_5_62" x1="177.077" y1="-0.285416" x2="369.131" y2="0.245504" gradientUnits="userSpaceOnUse">
<stop stop-color="white"/>
<stop offset="1" stop-color="white" stop-opacity="0"/>
</linearGradient>
<linearGradient id="paint19_linear_5_62" x1="1278" y1="962.5" x2="1419" y2="1076" gradientUnits="userSpaceOnUse">
<stop stop-color="white"/>
<stop offset="1" stop-color="white" stop-opacity="0"/>
</linearGradient>
<linearGradient id="paint20_linear_5_62" x1="188.67" y1="-1.1029e-05" x2="369.67" y2="-1.47614" gradientUnits="userSpaceOnUse">
<stop stop-color="white"/>
<stop offset="1" stop-color="white" stop-opacity="0"/>
</linearGradient>
<linearGradient id="paint21_linear_5_62" x1="1604" y1="552" x2="1704.5" y2="552" gradientUnits="userSpaceOnUse">
<stop stop-color="white"/>
<stop offset="1" stop-color="white" stop-opacity="0"/>
</linearGradient>
<linearGradient id="paint22_linear_5_62" x1="135.5" y1="551" x2="20" y2="551" gradientUnits="userSpaceOnUse">
<stop stop-color="white"/>
<stop offset="1" stop-color="white" stop-opacity="0"/>
</linearGradient>
</defs>
</svg>
